<svg id="Layer_1" data-name="Layer 1" xmlns="http://www.w3.org/2000/svg" width="183.4" height="46.3" viewBox="0 0 183.4 46.3">
  <defs>
    <style>
      .cls-1 {
        fill: #243342;
      }

      .cls-2 {
        fill: #54c1ae;
      }
    </style>
  </defs>
  <title>Stärke Logo RGB</title>
  <path class="cls-1" d="M117.8,149.2c0-13.7-19.6-7-19.6-13.7,0-1.7,1.8-3.7,6-3.7a13.2,13.2,0,0,1,7.4,2.5l2.8-5.5s-2.8-3.2-10.3-3.2c-9.4,0-13.2,5-13.2,9.9,0,13.7,19.5,6.5,19.5,13.7,0,2.3-1.8,4.3-6.3,4.3A14.4,14.4,0,0,1,94,149.2l-3,5.9s3.7,4.9,13.2,4.9c3.2,0,13.6-.7,13.6-10.8M144.2,133l3.1-6.4H121.8l-3.2,6.4h10v26.6h7.2V133Zm6.4,26.6,16.2-33h-7.9l-16.2,33Zm22.3,0h8l-8.4-17.1h-8Zm41.6,0-9.2-11.8a10.9,10.9,0,0,0-3.7-21.2H185v33h7.2V133h8.4a4.7,4.7,0,1,1,0,9.5h-7.4l13.4,17.1Zm4.2,0h7.2v-33h-7.2Zm16.2-17.1h0l10.5-15.9h-8l-10.5,15.9,11.3,17.1h8Zm39.6-15.9H250.3v33h20.8l3.2-6.4H257.6v-6.9h11.6l3.2-6.4H257.6V133h13.7Z" transform="translate(-91 -113.7)"/>
  <path class="cls-2" d="M150.9,121.6h7.9v-7.9h-7.9Zm15.9,0h7.9v-7.9h-7.9Z" transform="translate(-91 -113.7)"/>
</svg>
